%TF.GenerationSoftware,KiCad,Pcbnew,9.0.4*%
%TF.CreationDate,2025-12-03T20:32:54+01:00*%
%TF.ProjectId,ESP32_TOOLS,45535033-325f-4544-9f4f-4c532e6b6963,rev?*%
%TF.SameCoordinates,Original*%
%TF.FileFunction,Copper,L1,Top*%
%TF.FilePolarity,Positive*%
%FSLAX46Y46*%
G04 Gerber Fmt 4.6, Leading zero omitted, Abs format (unit mm)*
G04 Created by KiCad (PCBNEW 9.0.4) date 2025-12-03 20:32:54*
%MOMM*%
%LPD*%
G01*
G04 APERTURE LIST*
%TA.AperFunction,ComponentPad*%
%ADD10O,2.000000X2.000000*%
%TD*%
%TA.AperFunction,ComponentPad*%
%ADD11R,2.000000X2.000000*%
%TD*%
%TA.AperFunction,ComponentPad*%
%ADD12R,1.700000X1.700000*%
%TD*%
%TA.AperFunction,ComponentPad*%
%ADD13C,1.700000*%
%TD*%
%TA.AperFunction,ComponentPad*%
%ADD14C,2.000000*%
%TD*%
%TA.AperFunction,ComponentPad*%
%ADD15O,1.600000X2.300000*%
%TD*%
%TA.AperFunction,ComponentPad*%
%ADD16R,1.600000X2.300000*%
%TD*%
%TA.AperFunction,ViaPad*%
%ADD17C,2.000000*%
%TD*%
%TA.AperFunction,Conductor*%
%ADD18C,1.016000*%
%TD*%
G04 APERTURE END LIST*
D10*
%TO.P,J1,3,Pin_3*%
%TO.N,Net-(ALTO1-GND)*%
X200000000Y-123040000D03*
%TO.P,J1,2,Pin_2*%
%TO.N,Net-(J1-Pin_2)*%
X200000000Y-120500000D03*
D11*
%TO.P,J1,1,Pin_1*%
%TO.N,Net-(J1-Pin_1)*%
X200000000Y-117960000D03*
%TD*%
D12*
%TO.P,CENTRO1,1,GND*%
%TO.N,Net-(ALTO1-GND)*%
X197475000Y-59829500D03*
D13*
%TO.P,CENTRO1,2,VCC*%
%TO.N,Net-(ALTO1-VCC)*%
X197475000Y-57289500D03*
%TO.P,CENTRO1,3,CE*%
%TO.N,Net-(CENTRO1-CE)*%
X200015000Y-59829500D03*
%TO.P,CENTRO1,4,~{CSN}*%
%TO.N,Net-(CENTRO1-~{CSN})*%
X200015000Y-57289500D03*
%TO.P,CENTRO1,5,SCK*%
%TO.N,Net-(ALTO1-SCK)*%
X202555000Y-59829500D03*
%TO.P,CENTRO1,6,MOSI*%
%TO.N,Net-(ALTO1-MOSI)*%
X202555000Y-57289500D03*
%TO.P,CENTRO1,7,MISO*%
%TO.N,Net-(ALTO1-MISO)*%
X205095000Y-59829500D03*
%TO.P,CENTRO1,8,IRQ*%
%TO.N,unconnected-(CENTRO1-IRQ-Pad8)*%
X205095000Y-57289500D03*
%TD*%
D12*
%TO.P,BASSO1,1,GND*%
%TO.N,Net-(ALTO1-GND)*%
X180675000Y-59829500D03*
D13*
%TO.P,BASSO1,2,VCC*%
%TO.N,Net-(ALTO1-VCC)*%
X180675000Y-57289500D03*
%TO.P,BASSO1,3,CE*%
%TO.N,Net-(BASSO1-CE)*%
X183215000Y-59829500D03*
%TO.P,BASSO1,4,~{CSN}*%
%TO.N,Net-(BASSO1-~{CSN})*%
X183215000Y-57289500D03*
%TO.P,BASSO1,5,SCK*%
%TO.N,Net-(ALTO1-SCK)*%
X185755000Y-59829500D03*
%TO.P,BASSO1,6,MOSI*%
%TO.N,Net-(ALTO1-MOSI)*%
X185755000Y-57289500D03*
%TO.P,BASSO1,7,MISO*%
%TO.N,Net-(ALTO1-MISO)*%
X188295000Y-59829500D03*
%TO.P,BASSO1,8,IRQ*%
%TO.N,unconnected-(BASSO1-IRQ-Pad8)*%
X188295000Y-57289500D03*
%TD*%
D12*
%TO.P,ALTO1,1,GND*%
%TO.N,Net-(ALTO1-GND)*%
X163920000Y-60040000D03*
D13*
%TO.P,ALTO1,2,VCC*%
%TO.N,Net-(ALTO1-VCC)*%
X163920000Y-57500000D03*
%TO.P,ALTO1,3,CE*%
%TO.N,Net-(ALTO1-CE)*%
X166460000Y-60040000D03*
%TO.P,ALTO1,4,~{CSN}*%
%TO.N,Net-(ALTO1-~{CSN})*%
X166460000Y-57500000D03*
%TO.P,ALTO1,5,SCK*%
%TO.N,Net-(ALTO1-SCK)*%
X169000000Y-60040000D03*
%TO.P,ALTO1,6,MOSI*%
%TO.N,Net-(ALTO1-MOSI)*%
X169000000Y-57500000D03*
%TO.P,ALTO1,7,MISO*%
%TO.N,Net-(ALTO1-MISO)*%
X171540000Y-60040000D03*
%TO.P,ALTO1,8,IRQ*%
%TO.N,unconnected-(ALTO1-IRQ-Pad8)*%
X171540000Y-57500000D03*
%TD*%
D14*
%TO.P,OK1,1,1*%
%TO.N,Net-(ALTO1-GND)*%
X166750000Y-111750000D03*
X166750000Y-105250000D03*
%TO.P,OK1,2,2*%
%TO.N,Net-(S1-D32)*%
X171250000Y-111750000D03*
X171250000Y-105250000D03*
%TD*%
D11*
%TO.P,J3,1,Pin_1*%
%TO.N,Net-(ALTO1-GND)*%
X192380000Y-96500000D03*
D14*
%TO.P,J3,2,Pin_2*%
%TO.N,Net-(ALTO1-VCC)*%
X194920000Y-96500000D03*
%TO.P,J3,3,Pin_3*%
%TO.N,Net-(J3-Pin_3)*%
X197460000Y-96500000D03*
%TO.P,J3,4,Pin_4*%
%TO.N,Net-(J3-Pin_4)*%
X200000000Y-96500000D03*
%TD*%
%TO.P,UP1,1,1*%
%TO.N,Net-(ALTO1-GND)*%
X165750000Y-96750000D03*
X172250000Y-96750000D03*
%TO.P,UP1,2,2*%
%TO.N,Net-(S1-D26)*%
X165750000Y-101250000D03*
X172250000Y-101250000D03*
%TD*%
%TO.P,LEFT1,1,1*%
%TO.N,Net-(ALTO1-GND)*%
X158250000Y-111750000D03*
X158250000Y-105250000D03*
%TO.P,LEFT1,2,2*%
%TO.N,Net-(S1-D25)*%
X162750000Y-111750000D03*
X162750000Y-105250000D03*
%TD*%
%TO.P,DOWN1,1,1*%
%TO.N,Net-(ALTO1-GND)*%
X165750000Y-115750000D03*
X172250000Y-115750000D03*
%TO.P,DOWN1,2,2*%
%TO.N,Net-(S1-D33)*%
X165750000Y-120250000D03*
X172250000Y-120250000D03*
%TD*%
%TO.P,RIGHT1,1,1*%
%TO.N,Net-(ALTO1-GND)*%
X175250000Y-111750000D03*
X175250000Y-105250000D03*
%TO.P,RIGHT1,2,2*%
%TO.N,Net-(S1-D27)*%
X179750000Y-111750000D03*
X179750000Y-105250000D03*
%TD*%
D15*
%TO.P,S1,38,GND*%
%TO.N,Net-(ALTO1-GND)*%
X161450000Y-66000000D03*
%TO.P,S1,37,D23(MOSI)*%
%TO.N,Net-(ALTO1-MOSI)*%
X163990000Y-66000000D03*
%TO.P,S1,36,D22(SCL)*%
%TO.N,Net-(J3-Pin_3)*%
X166530000Y-66000000D03*
%TO.P,S1,35,TX0*%
%TO.N,unconnected-(S1-TX0-Pad35)*%
X169070000Y-66000000D03*
%TO.P,S1,34,RX0*%
%TO.N,unconnected-(S1-RX0-Pad34)*%
X171610000Y-66000000D03*
%TO.P,S1,33,D21(SDA)*%
%TO.N,Net-(J3-Pin_4)*%
X174150000Y-66000000D03*
%TO.P,S1,32,GND*%
%TO.N,Net-(ALTO1-GND)*%
X176690000Y-66000000D03*
%TO.P,S1,31,D19(MISO)*%
%TO.N,Net-(ALTO1-MISO)*%
X179230000Y-66000000D03*
%TO.P,S1,30,D18(CLK)*%
%TO.N,Net-(ALTO1-SCK)*%
X181770000Y-66000000D03*
%TO.P,S1,29,D5(CSO)*%
%TO.N,Net-(ALTO1-CE)*%
X184310000Y-66000000D03*
%TO.P,S1,28,TX2*%
%TO.N,Net-(ALTO1-~{CSN})*%
X186850000Y-66000000D03*
%TO.P,S1,27,RX2*%
%TO.N,Net-(CENTRO1-CE)*%
X189390000Y-66000000D03*
%TO.P,S1,26,D4*%
%TO.N,Net-(CENTRO1-~{CSN})*%
X191930000Y-66000000D03*
%TO.P,S1,25,D0*%
%TO.N,unconnected-(S1-D0-Pad25)*%
X194470000Y-66000000D03*
%TO.P,S1,24,D2*%
%TO.N,Net-(BASSO1-~{CSN})*%
X197010000Y-66000000D03*
%TO.P,S1,23,D15*%
%TO.N,Net-(BASSO1-CE)*%
X199550000Y-66000000D03*
%TO.P,S1,22,D8*%
%TO.N,unconnected-(S1-D8-Pad22)*%
X202090000Y-66000000D03*
%TO.P,S1,21,D7*%
%TO.N,unconnected-(S1-D7-Pad21)*%
X204627280Y-66003680D03*
%TO.P,S1,20,D6*%
%TO.N,unconnected-(S1-D6-Pad20)*%
X207167280Y-66003680D03*
%TO.P,S1,19,5V*%
%TO.N,Net-(J1-Pin_1)*%
X207170000Y-91400000D03*
%TO.P,S1,18,D11*%
%TO.N,unconnected-(S1-D11-Pad18)*%
X204630000Y-91400000D03*
%TO.P,S1,17,D10*%
%TO.N,unconnected-(S1-D10-Pad17)*%
X202090000Y-91400000D03*
%TO.P,S1,16,D9*%
%TO.N,unconnected-(S1-D9-Pad16)*%
X199550000Y-91400000D03*
%TO.P,S1,15,D13*%
%TO.N,unconnected-(S1-D13-Pad15)*%
X197010000Y-91400000D03*
%TO.P,S1,14,GND*%
%TO.N,Net-(ALTO1-GND)*%
X194470000Y-91400000D03*
%TO.P,S1,13,D12*%
%TO.N,unconnected-(S1-D12-Pad13)*%
X191930000Y-91400000D03*
%TO.P,S1,12,D14*%
%TO.N,Net-(J1-Pin_2)*%
X189390000Y-91400000D03*
%TO.P,S1,11,D27*%
%TO.N,Net-(S1-D27)*%
X186850000Y-91400000D03*
%TO.P,S1,10,D26*%
%TO.N,Net-(S1-D26)*%
X184310000Y-91400000D03*
%TO.P,S1,9,D25*%
%TO.N,Net-(S1-D25)*%
X181770000Y-91400000D03*
%TO.P,S1,8,D33*%
%TO.N,Net-(S1-D33)*%
X179230000Y-91400000D03*
%TO.P,S1,7,D32*%
%TO.N,Net-(S1-D32)*%
X176690000Y-91400000D03*
%TO.P,S1,6,D35*%
%TO.N,unconnected-(S1-D35-Pad6)*%
X174150000Y-91400000D03*
%TO.P,S1,5,D34*%
%TO.N,unconnected-(S1-D34-Pad5)*%
X171610000Y-91400000D03*
%TO.P,S1,4,VN*%
%TO.N,unconnected-(S1-VN-Pad4)*%
X169070000Y-91400000D03*
%TO.P,S1,3,VP*%
%TO.N,unconnected-(S1-VP-Pad3)*%
X166530000Y-91400000D03*
%TO.P,S1,2,EN*%
%TO.N,unconnected-(S1-EN-Pad2)*%
X163990000Y-91400000D03*
D16*
%TO.P,S1,1,3V3*%
%TO.N,Net-(ALTO1-VCC)*%
X161450000Y-91400000D03*
%TD*%
D17*
%TO.N,Net-(J3-Pin_4)*%
X174150000Y-72350000D03*
%TO.N,Net-(J3-Pin_3)*%
X166500000Y-72000000D03*
%TO.N,Net-(J3-Pin_4)*%
X201500000Y-100500000D03*
%TO.N,Net-(J3-Pin_3)*%
X199000000Y-102000000D03*
%TO.N,Net-(ALTO1-VCC)*%
X196500000Y-100500000D03*
%TO.N,Net-(ALTO1-GND)*%
X156500000Y-122000000D03*
X162000000Y-115500000D03*
%TO.N,Net-(S1-D27)*%
X188000000Y-95000000D03*
X179000000Y-100500000D03*
%TD*%
D18*
%TO.N,Net-(J3-Pin_3)*%
X166500000Y-84699436D02*
X166500000Y-72000000D01*
X163274036Y-87925400D02*
X166500000Y-84699436D01*
X156362364Y-87925400D02*
X163274036Y-87925400D01*
X151500000Y-92787764D02*
X156362364Y-87925400D01*
X151500000Y-105500000D02*
X151500000Y-92787764D01*
X155500000Y-109500000D02*
X151500000Y-105500000D01*
X191500000Y-109500000D02*
X155500000Y-109500000D01*
X199000000Y-102000000D02*
X191500000Y-109500000D01*
%TO.N,Net-(ALTO1-VCC)*%
X161450000Y-97050000D02*
X161450000Y-91400000D01*
X155000000Y-107000000D02*
X155000000Y-103500000D01*
X181500000Y-108000000D02*
X156000000Y-108000000D01*
X156000000Y-108000000D02*
X155000000Y-107000000D01*
X155000000Y-103500000D02*
X161450000Y-97050000D01*
X196500000Y-100500000D02*
X189000000Y-100500000D01*
X189000000Y-100500000D02*
X181500000Y-108000000D01*
%TO.N,Net-(ALTO1-GND)*%
X162000000Y-116500000D02*
X156500000Y-122000000D01*
X162000000Y-115500000D02*
X162000000Y-116500000D01*
%TO.N,Net-(S1-D27)*%
X182500000Y-100500000D02*
X188000000Y-95000000D01*
X179000000Y-100500000D02*
X182500000Y-100500000D01*
%TO.N,Net-(J3-Pin_3)*%
X199000000Y-102000000D02*
X199209000Y-102209000D01*
%TO.N,Net-(J3-Pin_4)*%
X203549708Y-100500000D02*
X201500000Y-100500000D01*
X212259000Y-91790708D02*
X203549708Y-100500000D01*
X174150000Y-72350000D02*
X188800000Y-87000000D01*
X188800000Y-87000000D02*
X210500000Y-87000000D01*
X210500000Y-87000000D02*
X212259000Y-88759000D01*
X212259000Y-88759000D02*
X212259000Y-91790708D01*
%TD*%
D10*
%TO.P,J1,3,Pin_3*%
%TO.N,Net-(ALTO1-GND)*%
X200000000Y-123040000D03*
%TO.P,J1,2,Pin_2*%
%TO.N,Net-(J1-Pin_2)*%
X200000000Y-120500000D03*
D11*
%TO.P,J1,1,Pin_1*%
%TO.N,Net-(J1-Pin_1)*%
X200000000Y-117960000D03*
%TD*%
D12*
%TO.P,CENTRO1,1,GND*%
%TO.N,Net-(ALTO1-GND)*%
X197475000Y-59829500D03*
D13*
%TO.P,CENTRO1,2,VCC*%
%TO.N,Net-(ALTO1-VCC)*%
X197475000Y-57289500D03*
%TO.P,CENTRO1,3,CE*%
%TO.N,Net-(CENTRO1-CE)*%
X200015000Y-59829500D03*
%TO.P,CENTRO1,4,~{CSN}*%
%TO.N,Net-(CENTRO1-~{CSN})*%
X200015000Y-57289500D03*
%TO.P,CENTRO1,5,SCK*%
%TO.N,Net-(ALTO1-SCK)*%
X202555000Y-59829500D03*
%TO.P,CENTRO1,6,MOSI*%
%TO.N,Net-(ALTO1-MOSI)*%
X202555000Y-57289500D03*
%TO.P,CENTRO1,7,MISO*%
%TO.N,Net-(ALTO1-MISO)*%
X205095000Y-59829500D03*
%TO.P,CENTRO1,8,IRQ*%
%TO.N,unconnected-(CENTRO1-IRQ-Pad8)*%
X205095000Y-57289500D03*
%TD*%
D12*
%TO.P,BASSO1,1,GND*%
%TO.N,Net-(ALTO1-GND)*%
X180675000Y-59829500D03*
D13*
%TO.P,BASSO1,2,VCC*%
%TO.N,Net-(ALTO1-VCC)*%
X180675000Y-57289500D03*
%TO.P,BASSO1,3,CE*%
%TO.N,Net-(BASSO1-CE)*%
X183215000Y-59829500D03*
%TO.P,BASSO1,4,~{CSN}*%
%TO.N,Net-(BASSO1-~{CSN})*%
X183215000Y-57289500D03*
%TO.P,BASSO1,5,SCK*%
%TO.N,Net-(ALTO1-SCK)*%
X185755000Y-59829500D03*
%TO.P,BASSO1,6,MOSI*%
%TO.N,Net-(ALTO1-MOSI)*%
X185755000Y-57289500D03*
%TO.P,BASSO1,7,MISO*%
%TO.N,Net-(ALTO1-MISO)*%
X188295000Y-59829500D03*
%TO.P,BASSO1,8,IRQ*%
%TO.N,unconnected-(BASSO1-IRQ-Pad8)*%
X188295000Y-57289500D03*
%TD*%
D12*
%TO.P,ALTO1,1,GND*%
%TO.N,Net-(ALTO1-GND)*%
X163920000Y-60040000D03*
D13*
%TO.P,ALTO1,2,VCC*%
%TO.N,Net-(ALTO1-VCC)*%
X163920000Y-57500000D03*
%TO.P,ALTO1,3,CE*%
%TO.N,Net-(ALTO1-CE)*%
X166460000Y-60040000D03*
%TO.P,ALTO1,4,~{CSN}*%
%TO.N,Net-(ALTO1-~{CSN})*%
X166460000Y-57500000D03*
%TO.P,ALTO1,5,SCK*%
%TO.N,Net-(ALTO1-SCK)*%
X169000000Y-60040000D03*
%TO.P,ALTO1,6,MOSI*%
%TO.N,Net-(ALTO1-MOSI)*%
X169000000Y-57500000D03*
%TO.P,ALTO1,7,MISO*%
%TO.N,Net-(ALTO1-MISO)*%
X171540000Y-60040000D03*
%TO.P,ALTO1,8,IRQ*%
%TO.N,unconnected-(ALTO1-IRQ-Pad8)*%
X171540000Y-57500000D03*
%TD*%
D14*
%TO.P,OK1,1,1*%
%TO.N,Net-(ALTO1-GND)*%
X166750000Y-111750000D03*
X166750000Y-105250000D03*
%TO.P,OK1,2,2*%
%TO.N,Net-(S1-D32)*%
X171250000Y-111750000D03*
X171250000Y-105250000D03*
%TD*%
D11*
%TO.P,J3,1,Pin_1*%
%TO.N,Net-(ALTO1-GND)*%
X192380000Y-96500000D03*
D14*
%TO.P,J3,2,Pin_2*%
%TO.N,Net-(ALTO1-VCC)*%
X194920000Y-96500000D03*
%TO.P,J3,3,Pin_3*%
%TO.N,Net-(J3-Pin_3)*%
X197460000Y-96500000D03*
%TO.P,J3,4,Pin_4*%
%TO.N,Net-(J3-Pin_4)*%
X200000000Y-96500000D03*
%TD*%
%TO.P,UP1,1,1*%
%TO.N,Net-(ALTO1-GND)*%
X165750000Y-96750000D03*
X172250000Y-96750000D03*
%TO.P,UP1,2,2*%
%TO.N,Net-(S1-D26)*%
X165750000Y-101250000D03*
X172250000Y-101250000D03*
%TD*%
%TO.P,LEFT1,1,1*%
%TO.N,Net-(ALTO1-GND)*%
X158250000Y-111750000D03*
X158250000Y-105250000D03*
%TO.P,LEFT1,2,2*%
%TO.N,Net-(S1-D25)*%
X162750000Y-111750000D03*
X162750000Y-105250000D03*
%TD*%
%TO.P,DOWN1,1,1*%
%TO.N,Net-(ALTO1-GND)*%
X165750000Y-115750000D03*
X172250000Y-115750000D03*
%TO.P,DOWN1,2,2*%
%TO.N,Net-(S1-D33)*%
X165750000Y-120250000D03*
X172250000Y-120250000D03*
%TD*%
%TO.P,RIGHT1,1,1*%
%TO.N,Net-(ALTO1-GND)*%
X175250000Y-111750000D03*
X175250000Y-105250000D03*
%TO.P,RIGHT1,2,2*%
%TO.N,Net-(S1-D27)*%
X179750000Y-111750000D03*
X179750000Y-105250000D03*
%TD*%
D15*
%TO.P,S1,38,GND*%
%TO.N,Net-(ALTO1-GND)*%
X161450000Y-66000000D03*
%TO.P,S1,37,D23(MOSI)*%
%TO.N,Net-(ALTO1-MOSI)*%
X163990000Y-66000000D03*
%TO.P,S1,36,D22(SCL)*%
%TO.N,Net-(J3-Pin_3)*%
X166530000Y-66000000D03*
%TO.P,S1,35,TX0*%
%TO.N,unconnected-(S1-TX0-Pad35)*%
X169070000Y-66000000D03*
%TO.P,S1,34,RX0*%
%TO.N,unconnected-(S1-RX0-Pad34)*%
X171610000Y-66000000D03*
%TO.P,S1,33,D21(SDA)*%
%TO.N,Net-(J3-Pin_4)*%
X174150000Y-66000000D03*
%TO.P,S1,32,GND*%
%TO.N,Net-(ALTO1-GND)*%
X176690000Y-66000000D03*
%TO.P,S1,31,D19(MISO)*%
%TO.N,Net-(ALTO1-MISO)*%
X179230000Y-66000000D03*
%TO.P,S1,30,D18(CLK)*%
%TO.N,Net-(ALTO1-SCK)*%
X181770000Y-66000000D03*
%TO.P,S1,29,D5(CSO)*%
%TO.N,Net-(ALTO1-CE)*%
X184310000Y-66000000D03*
%TO.P,S1,28,TX2*%
%TO.N,Net-(ALTO1-~{CSN})*%
X186850000Y-66000000D03*
%TO.P,S1,27,RX2*%
%TO.N,Net-(CENTRO1-CE)*%
X189390000Y-66000000D03*
%TO.P,S1,26,D4*%
%TO.N,Net-(CENTRO1-~{CSN})*%
X191930000Y-66000000D03*
%TO.P,S1,25,D0*%
%TO.N,unconnected-(S1-D0-Pad25)*%
X194470000Y-66000000D03*
%TO.P,S1,24,D2*%
%TO.N,Net-(BASSO1-~{CSN})*%
X197010000Y-66000000D03*
%TO.P,S1,23,D15*%
%TO.N,Net-(BASSO1-CE)*%
X199550000Y-66000000D03*
%TO.P,S1,22,D8*%
%TO.N,unconnected-(S1-D8-Pad22)*%
X202090000Y-66000000D03*
%TO.P,S1,21,D7*%
%TO.N,unconnected-(S1-D7-Pad21)*%
X204627280Y-66003680D03*
%TO.P,S1,20,D6*%
%TO.N,unconnected-(S1-D6-Pad20)*%
X207167280Y-66003680D03*
%TO.P,S1,19,5V*%
%TO.N,Net-(J1-Pin_1)*%
X207170000Y-91400000D03*
%TO.P,S1,18,D11*%
%TO.N,unconnected-(S1-D11-Pad18)*%
X204630000Y-91400000D03*
%TO.P,S1,17,D10*%
%TO.N,unconnected-(S1-D10-Pad17)*%
X202090000Y-91400000D03*
%TO.P,S1,16,D9*%
%TO.N,unconnected-(S1-D9-Pad16)*%
X199550000Y-91400000D03*
%TO.P,S1,15,D13*%
%TO.N,unconnected-(S1-D13-Pad15)*%
X197010000Y-91400000D03*
%TO.P,S1,14,GND*%
%TO.N,Net-(ALTO1-GND)*%
X194470000Y-91400000D03*
%TO.P,S1,13,D12*%
%TO.N,unconnected-(S1-D12-Pad13)*%
X191930000Y-91400000D03*
%TO.P,S1,12,D14*%
%TO.N,Net-(J1-Pin_2)*%
X189390000Y-91400000D03*
%TO.P,S1,11,D27*%
%TO.N,Net-(S1-D27)*%
X186850000Y-91400000D03*
%TO.P,S1,10,D26*%
%TO.N,Net-(S1-D26)*%
X184310000Y-91400000D03*
%TO.P,S1,9,D25*%
%TO.N,Net-(S1-D25)*%
X181770000Y-91400000D03*
%TO.P,S1,8,D33*%
%TO.N,Net-(S1-D33)*%
X179230000Y-91400000D03*
%TO.P,S1,7,D32*%
%TO.N,Net-(S1-D32)*%
X176690000Y-91400000D03*
%TO.P,S1,6,D35*%
%TO.N,unconnected-(S1-D35-Pad6)*%
X174150000Y-91400000D03*
%TO.P,S1,5,D34*%
%TO.N,unconnected-(S1-D34-Pad5)*%
X171610000Y-91400000D03*
%TO.P,S1,4,VN*%
%TO.N,unconnected-(S1-VN-Pad4)*%
X169070000Y-91400000D03*
%TO.P,S1,3,VP*%
%TO.N,unconnected-(S1-VP-Pad3)*%
X166530000Y-91400000D03*
%TO.P,S1,2,EN*%
%TO.N,unconnected-(S1-EN-Pad2)*%
X163990000Y-91400000D03*
D16*
%TO.P,S1,1,3V3*%
%TO.N,Net-(ALTO1-VCC)*%
X161450000Y-91400000D03*
%TD*%
D17*
%TO.N,Net-(J3-Pin_4)*%
X174150000Y-72350000D03*
%TO.N,Net-(J3-Pin_3)*%
X166500000Y-72000000D03*
%TO.N,Net-(J3-Pin_4)*%
X201500000Y-100500000D03*
%TO.N,Net-(J3-Pin_3)*%
X199000000Y-102000000D03*
%TO.N,Net-(ALTO1-VCC)*%
X196500000Y-100500000D03*
%TO.N,Net-(ALTO1-GND)*%
X156500000Y-122000000D03*
X162000000Y-115500000D03*
%TO.N,Net-(S1-D27)*%
X188000000Y-95000000D03*
X179000000Y-100500000D03*
%TD*%
D18*
%TO.N,Net-(ALTO1-GND)*%
X176690000Y-74310000D02*
X176690000Y-66000000D01*
X175500000Y-75500000D02*
X176690000Y-74310000D01*
X166000000Y-75500000D02*
X175500000Y-75500000D01*
X164000000Y-69943364D02*
X164000000Y-73500000D01*
X163274036Y-69217400D02*
X164000000Y-69943364D01*
X162501400Y-69217400D02*
X163274036Y-69217400D01*
X161450000Y-68166000D02*
X162501400Y-69217400D01*
X161450000Y-66000000D02*
X161450000Y-68166000D01*
X164000000Y-73500000D02*
X166000000Y-75500000D01*
X211259000Y-85500000D02*
X212259000Y-86500000D01*
X200370000Y-85500000D02*
X211259000Y-85500000D01*
X194470000Y-91400000D02*
X200370000Y-85500000D01*
X212259000Y-65409292D02*
X212259000Y-86500000D01*
X212259000Y-86500000D02*
X212259000Y-107241000D01*
%TO.N,Net-(ALTO1-VCC)*%
X195685500Y-55500000D02*
X197475000Y-57289500D01*
X182464500Y-55500000D02*
X195685500Y-55500000D01*
X180675000Y-57289500D02*
X182464500Y-55500000D01*
X178885500Y-55500000D02*
X180675000Y-57289500D01*
X165500000Y-55500000D02*
X178885500Y-55500000D01*
X163920000Y-57080000D02*
X165500000Y-55500000D01*
X163920000Y-57500000D02*
X163920000Y-57080000D01*
X157466292Y-93114000D02*
X159736000Y-93114000D01*
X156064200Y-91711908D02*
X157466292Y-93114000D01*
X156064200Y-64777800D02*
X156064200Y-91711908D01*
X159736000Y-93114000D02*
X161450000Y-91400000D01*
X163342000Y-57500000D02*
X156064200Y-64777800D01*
X163920000Y-57500000D02*
X163342000Y-57500000D01*
%TO.N,Net-(J3-Pin_4)*%
X174150000Y-66000000D02*
X174150000Y-72350000D01*
%TO.N,Net-(J3-Pin_3)*%
X166530000Y-66000000D02*
X166530000Y-71970000D01*
X166530000Y-71970000D02*
X166500000Y-72000000D01*
%TO.N,Net-(J3-Pin_4)*%
X201500000Y-99000000D02*
X201500000Y-100500000D01*
X201500000Y-98000000D02*
X201500000Y-99000000D01*
X200500000Y-97000000D02*
X201500000Y-98000000D01*
%TO.N,Net-(J3-Pin_3)*%
X199000000Y-99500000D02*
X199000000Y-102000000D01*
X199000000Y-99000000D02*
X199000000Y-99500000D01*
X198500000Y-98500000D02*
X199000000Y-99000000D01*
%TO.N,Net-(J3-Pin_4)*%
X200000000Y-96500000D02*
X200500000Y-97000000D01*
%TO.N,Net-(J3-Pin_3)*%
X198000000Y-98000000D02*
X198500000Y-98500000D01*
X197460000Y-97460000D02*
X198000000Y-98000000D01*
X197460000Y-96500000D02*
X197460000Y-97460000D01*
%TO.N,Net-(ALTO1-VCC)*%
X196500000Y-99500000D02*
X196500000Y-100500000D01*
X194920000Y-97920000D02*
X195500000Y-98500000D01*
X195500000Y-98500000D02*
X196500000Y-99500000D01*
X194920000Y-96500000D02*
X194920000Y-97920000D01*
%TO.N,Net-(ALTO1-GND)*%
X208000000Y-111500000D02*
X194500000Y-111500000D01*
X212259000Y-107241000D02*
X208000000Y-111500000D01*
X200645500Y-63000000D02*
X209849708Y-63000000D01*
X197475000Y-59829500D02*
X200645500Y-63000000D01*
X209849708Y-63000000D02*
X212259000Y-65409292D01*
X156500000Y-122000000D02*
X161500000Y-127000000D01*
X162000000Y-115500000D02*
X158250000Y-111750000D01*
%TO.N,Net-(S1-D32)*%
X171750000Y-105250000D02*
X176690000Y-100310000D01*
X176690000Y-100310000D02*
X176690000Y-91400000D01*
X171250000Y-105250000D02*
X171750000Y-105250000D01*
%TO.N,Net-(ALTO1-GND)*%
X194500000Y-111500000D02*
X194500000Y-100500000D01*
X179000000Y-127000000D02*
X194500000Y-111500000D01*
X161500000Y-127000000D02*
X179000000Y-127000000D01*
X152000000Y-117500000D02*
X156500000Y-122000000D01*
X152000000Y-103500000D02*
X152000000Y-117500000D01*
X158750000Y-96750000D02*
X152000000Y-103500000D01*
X165750000Y-96750000D02*
X158750000Y-96750000D01*
%TO.N,Net-(S1-D27)*%
X186850000Y-93850000D02*
X188000000Y-95000000D01*
X186850000Y-91400000D02*
X186850000Y-93850000D01*
X179750000Y-101250000D02*
X179000000Y-100500000D01*
X179750000Y-105250000D02*
X179750000Y-101250000D01*
%TO.N,Net-(S1-D26)*%
X184310000Y-94810000D02*
X184310000Y-91400000D01*
X186500000Y-116000000D02*
X186500000Y-97000000D01*
X186500000Y-97000000D02*
X184310000Y-94810000D01*
X177500000Y-125000000D02*
X186500000Y-116000000D01*
X163000000Y-125000000D02*
X177500000Y-125000000D01*
X154000000Y-116000000D02*
X163000000Y-125000000D01*
X154000000Y-104000000D02*
X154000000Y-116000000D01*
X156750000Y-101250000D02*
X154000000Y-104000000D01*
X165750000Y-101250000D02*
X156750000Y-101250000D01*
%TO.N,Net-(S1-D25)*%
X184000000Y-98000000D02*
X181770000Y-95770000D01*
X163500000Y-122500000D02*
X177000000Y-122500000D01*
X156000000Y-115000000D02*
X163500000Y-122500000D01*
X181770000Y-95770000D02*
X181770000Y-91400000D01*
X156000000Y-104500000D02*
X156000000Y-115000000D01*
X177000000Y-122500000D02*
X184000000Y-115500000D01*
X160500000Y-103000000D02*
X157500000Y-103000000D01*
X157500000Y-103000000D02*
X156000000Y-104500000D01*
X184000000Y-115500000D02*
X184000000Y-98000000D01*
X162750000Y-105250000D02*
X160500000Y-103000000D01*
%TO.N,Net-(S1-D33)*%
X182000000Y-99000000D02*
X179230000Y-96230000D01*
X176250000Y-120250000D02*
X182000000Y-114500000D01*
X172250000Y-120250000D02*
X176250000Y-120250000D01*
X182000000Y-114500000D02*
X182000000Y-99000000D01*
X179230000Y-96230000D02*
X179230000Y-91400000D01*
%TO.N,Net-(ALTO1-GND)*%
X175250000Y-114750000D02*
X175250000Y-111750000D01*
X174250000Y-115750000D02*
X175250000Y-114750000D01*
X172250000Y-115750000D02*
X174250000Y-115750000D01*
X166750000Y-111750000D02*
X166750000Y-114750000D01*
X166750000Y-114750000D02*
X165750000Y-115750000D01*
X162250000Y-115750000D02*
X162000000Y-115500000D01*
X165750000Y-115750000D02*
X162250000Y-115750000D01*
X194500000Y-100500000D02*
X192380000Y-98380000D01*
X192380000Y-98380000D02*
X192380000Y-96500000D01*
X194470000Y-93030000D02*
X194470000Y-91400000D01*
X192380000Y-95120000D02*
X194470000Y-93030000D01*
X192380000Y-96500000D02*
X192380000Y-95120000D01*
X176690000Y-62310000D02*
X176690000Y-66000000D01*
X179170500Y-59829500D02*
X176690000Y-62310000D01*
X180675000Y-59829500D02*
X179170500Y-59829500D01*
X172250000Y-96750000D02*
X165750000Y-96750000D01*
%TO.N,Net-(S1-D26)*%
X165750000Y-101250000D02*
X172250000Y-101250000D01*
%TO.N,Net-(ALTO1-GND)*%
X158250000Y-105250000D02*
X158250000Y-111750000D01*
%TO.N,Net-(S1-D27)*%
X179750000Y-111750000D02*
X179750000Y-105250000D01*
%TO.N,Net-(S1-D32)*%
X171250000Y-105250000D02*
X171250000Y-111750000D01*
%TO.N,Net-(S1-D25)*%
X162750000Y-111750000D02*
X162750000Y-105250000D01*
%TO.N,Net-(ALTO1-GND)*%
X175250000Y-105250000D02*
X175250000Y-111750000D01*
X166750000Y-111750000D02*
X166750000Y-105250000D01*
X172250000Y-115750000D02*
X165750000Y-115750000D01*
%TO.N,Net-(S1-D33)*%
X165750000Y-120250000D02*
X172250000Y-120250000D01*
%TO.N,Net-(ALTO1-GND)*%
X163920000Y-60040000D02*
X162960000Y-60040000D01*
X162960000Y-60040000D02*
X161450000Y-61550000D01*
X161450000Y-61550000D02*
X161450000Y-66000000D01*
%TD*%
M02*
